# xmcd
#
# Track frame offsets: 
#        150
#        18196
#        33579
#        48660
#        73992
#        95363
#        114762
#        131255
#        162232
#        170529
#        188615
#        201322
#        232338
#        245137
#
# Disc length: 3516 seconds
#
# Revision: 2
# Processed by: cddbd v1.5.2PL0 Copyright (c) Steve Scherf et al.
# Submitted via: ExactAudioCopy v0.99pb3
#
DISCID=c30dba0e
DTITLE=Arnaldur Indridason - Todeshauch - CD3
DYEAR=2006
DGENRE=Hörbuch
TTITLE0=Todeshauch - 027
TTITLE1=Todeshauch - 028
TTITLE2=Todeshauch - 029
TTITLE3=Todeshauch - 030
TTITLE4=Todeshauch - 031
TTITLE5=Todeshauch - 032
TTITLE6=Todeshauch - 033
TTITLE7=Todeshauch - 034
TTITLE8=Todeshauch - 035
TTITLE9=Todeshauch - 036
TTITLE10=Todeshauch - 037
TTITLE11=Todeshauch - 038
TTITLE12=Todeshauch - 039
TTITLE13=Todeshauch - 040
EXTD=YEAR: 2006
EXTT0=
EXTT1=
EXTT2=
EXTT3=
EXTT4=
EXTT5=
EXTT6=
EXTT7=
EXTT8=
EXTT9=
EXTT10=
EXTT11=
EXTT12=
EXTT13=
PLAYORDER=
